<?xml version="1.0" encoding="UTF-8" standalone="no"?>
<svg
   xmlns:svg="http://www.w3.org/2000/svg"
   xmlns="http://www.w3.org/2000/svg"
   viewBox="0 0 117 117"
   preserveAspectRatio="xMidYMid meet"
   height="117"
   width="117"
   >
  <g class="logo--new icon--stc-logo">
    <path fill="#da291c" class="logo__icon stc-logo"
      d="m 100.90001,28.8 c 4.8,-5.6 6.9,-8.2 6.4,-9.7 -0.3,-1.1 -1.5,-2 -3.1,-2.6 -1.8,-0.7 -4.30001,-1 -5.50001,-0.3 -0.4,0.2 -1.1,1 -2.7,2.8 l -1.5,1.7 v 0 c -1,-1 -2,-2 -3,-2.8 C 84.2,11.5 75.3,7.4000008 65.6,5.9000008 c -3.9,-4.1 -8.9,-6.00000001 -13.9,-5.3 -4.2,0.7 -7.9,3.2 -10.4,7 C 31.5,10.6 22.6,16.2 15.6,23.9 v 0 c -1.6,-0.5 -5,0.1 -7.2,1.3 -1.2,0.7 -1.9,1.5 -2.1,2.3 -0.1,0.7 0.2,1.7 2.8,4.8 v 0 c -6.9,11 -9.9,24 -8.4,36.6 1.5,13 7.7,24.7 17.3,33.1 3.4,3 7.2,5.5 11.2,7.4 5.8,2.8 12.2,4.8 19.1,5.7 14.4,1.9 28.3,-1.2 39.8,-7.8 v 0 c 1.5,-0.8 2,-2.6 1.3,-4.2 l -0.2,-0.5 c -3,-6.6 -12,-26.9 -7,-45.3 2.1,-7.7 8.2,-15.9 13.4,-22.4 v 0 c 5.60001,8.7 8.40001,19 8.00001,29.1 -0.4,9.6 -3.50001,18.5 -9.20001,26 -0.2,0.2 -0.3,0.5 -0.2,0.8 0,0.1 0,0.2 0.1,0.3 l 0.6,1.3 c 0.2,0.4 0.6,0.7 1.1,0.6 0.3,0 0.6,-0.2 0.8,-0.4 v 0 C 111.50001,74 113.30001,48.1 100.90001,28.8 Z M 35.4,72.4 c -1.2,6.9 -2.8,16.4 -1.3,30.8 v 0 C 30.3,101.3 26.7,98.9 23.4,96 14.6,88.3 8.6,77.8 6.6,66.5 4.7,55.6 6.5,44.5 11.7,35.2 v 0 0 c 0,0 0,0 0,0 2,2.1 4.4,4.5 6.9,6.9 6.1,6.1 13.1,13 16.5,17.9 2,2.8 1.4,6.4 0.3,12.4 M 88.9,26.7 C 77.6,38.1 66.9,44.3 57.2,45 49.7,45.6 41.8,43.3 33.7,38.4 27,34.3 21.8,29.4 18.7,26.5 l -0.3,-0.3 v 0 0 C 24,20.3 31,15.9 38.9,13.5 c 0,0 0,0 0,0 v 0 c 0,0 0,0 0,0 -0.8,3.1 -1,6.4 -0.5,9.7 0.9,5.9 4,11.1 8.3,14.3 3.4,2.5 7.4,3.5 11.3,2.9 3.9,-0.6 7.4,-2.8 9.8,-6.2 C 71,29.8 72.3,23.9 71.4,18 71.2,16.9 71,15.8 70.7,14.8 v 0 c 5.7,2.2 10.9,5.3 15.5,9.4 0.9,0.7 1.8,1.5 2.7,2.5 z"/>
  </g>
</svg>